<?xml version="1.0" encoding="UTF-8" standalone="no"?><!DOCTYPE svg PUBLIC "-//W3C//DTD SVG 1.1//EN" "http://www.w3.org/Graphics/SVG/1.1/DTD/svg11.dtd"><svg width="100%" height="100%" viewBox="0 0 990 990" version="1.1" xmlns="http://www.w3.org/2000/svg" xmlns:xlink="http://www.w3.org/1999/xlink" xml:space="preserve" xmlns:serif="http://www.serif.com/" style="fill-rule:evenodd;clip-rule:evenodd;stroke-linejoin:round;stroke-miterlimit:2;"><g><path d="M513.218,101.073C507.572,187.531 583.25,239.986 674.163,388.095C765.024,536.119 802.628,844.951 537.407,905.235C427.565,930.202 351.113,905 287.753,871.904C287.289,871.661 259.782,855.514 285.095,865.913C330.443,884.542 503.355,930.696 595.515,796.969C704.325,639.081 634.649,495.916 536.378,316.407C489.813,231.349 468.808,132.927 516.006,79.113C527.451,66.063 517.017,84.251 513.218,101.073Z" style="fill:#d9622e;"/><path d="M513.218,101.073C507.572,187.531 583.25,239.986 674.163,388.095C765.024,536.119 802.628,844.951 537.407,905.235C427.565,930.202 351.113,905 287.753,871.904C287.289,871.661 259.782,855.514 285.095,865.913C330.443,884.542 503.355,930.696 595.515,796.969C704.325,639.081 634.649,495.916 536.378,316.407C489.813,231.349 468.808,132.927 516.006,79.113C527.451,66.063 517.017,84.251 513.218,101.073Z" style="fill:#d9622e;"/><path d="M249.364,695.921C254.159,700.873 252.138,701.679 252.574,706.679C258.253,771.757 337.449,814.923 407.342,793.962C576.998,743.082 462.87,488.947 433.257,404.445C378.016,246.813 453.926,171.508 456.887,172.369C459.035,172.993 457.521,173.882 454.687,181.033C413.056,286.092 525.991,385.648 574.636,553.526C635.389,763.191 492.348,896.067 342.812,845.331C232.656,807.956 248.265,698.638 249.364,695.921Z" style="fill:#dc6633;"/><path d="M249.364,695.921C254.159,700.873 252.138,701.679 252.574,706.679C258.253,771.757 337.449,814.923 407.342,793.962C576.998,743.082 462.87,488.947 433.257,404.445C378.016,246.813 453.926,171.508 456.887,172.369C459.035,172.993 457.521,173.882 454.687,181.033C413.056,286.092 525.991,385.648 574.636,553.526C635.389,763.191 492.348,896.067 342.812,845.331C232.656,807.956 248.265,698.638 249.364,695.921Z" style="fill:#dc6633;"/><path d="M363.813,262.042C375.689,258.043 379.486,254.245 378.247,259.469C378.217,259.596 374.973,263.669 371.907,271.317C329.484,377.14 426.05,498.994 451.308,607.32C473.706,703.378 417.946,759.371 369.217,763.012C269.075,770.494 271.447,655.737 279.451,655.724C281.076,655.722 295.983,684.999 329.268,678.497C386.252,667.364 352.812,611.374 304.904,530.534C298.488,519.709 259.838,454.491 275.333,376.044C291.978,291.771 349.226,268.466 363.813,262.042Z" style="fill:#e16b38;"/><path d="M363.813,262.042C375.689,258.043 379.486,254.245 378.247,259.469C378.217,259.596 374.973,263.669 371.907,271.317C329.484,377.14 426.05,498.994 451.308,607.32C473.706,703.378 417.946,759.371 369.217,763.012C269.075,770.494 271.447,655.737 279.451,655.724C281.076,655.722 295.983,684.999 329.268,678.497C386.252,667.364 352.812,611.374 304.904,530.534C298.488,519.709 259.838,454.491 275.333,376.044C291.978,291.771 349.226,268.466 363.813,262.042Z" style="fill:#e16b38;"/></g></svg>